<?xml version="1.0" standalone="no"?>
<!DOCTYPE svg PUBLIC "-//W3C//DTD SVG 20010904//EN"
 "http://www.w3.org/TR/2001/REC-SVG-20010904/DTD/svg10.dtd">
<svg version="1.0" xmlns="http://www.w3.org/2000/svg"
 width="300.000000pt" height="300.000000pt" viewBox="0 0 300.000000 300.000000"
 preserveAspectRatio="xMidYMid meet">
<metadata>
Created by potrace 1.10, written by Peter Selinger 2001-2011
</metadata>
<g transform="translate(0.000000,300.000000) scale(0.100000,-0.100000)"
fill="#000000" stroke="none">
<path d="M1108 2885 c-91 -48 -138 -143 -146 -296 -5 -114 16 -235 56 -319 34
-70 151 -188 254 -257 76 -50 85 -63 44 -63 -53 0 -209 128 -278 228 -65 94
-98 206 -99 337 -1 110 -13 89 -29 -53 -14 -121 -1 -271 31 -357 26 -69 106
-158 198 -219 71 -48 161 -91 161 -77 0 9 -43 51 -52 51 -14 0 -128 82 -179
128 -30 28 -67 72 -81 99 -24 45 -53 151 -44 160 2 3 24 -27 49 -66 68 -105
185 -217 260 -249 41 -18 82 -15 102 8 26 29 9 54 -76 115 -151 106 -245 225
-263 335 -3 19 -8 49 -11 65 -11 56 -5 183 10 222 l14 38 -7 -45 c-4 -25 -6
-85 -6 -135 1 -77 6 -99 31 -156 30 -66 71 -109 103 -109 10 0 30 -16 44 -35
37 -48 95 -103 115 -110 9 -3 34 -25 54 -50 21 -25 43 -45 49 -45 7 0 49 -36
94 -80 55 -54 89 -80 105 -80 20 0 12 12 -57 83 -45 45 -89 93 -98 107 -19 29
-21 71 -4 88 7 7 8 12 2 12 -18 0 -34 -48 -27 -82 6 -30 5 -32 -10 -20 -9 8
-27 37 -42 65 -33 67 -34 142 -3 183 l22 29 -27 -24 c-32 -29 -49 -85 -41
-132 5 -34 5 -34 -58 32 -35 37 -77 93 -93 125 -41 81 -41 194 -1 302 36 97
27 104 -12 10 -57 -139 -63 -231 -21 -327 19 -43 19 -44 1 -28 -34 31 -70 111
-82 180 -21 120 19 305 86 393 38 50 30 54 -38 19z"/>
<path d="M1809 2693 c-67 -57 -108 -140 -148 -298 -7 -28 1 -151 14 -221 4
-25 10 -31 24 -27 16 4 20 -5 32 -63 25 -128 72 -158 137 -89 18 19 35 35 37
35 16 0 138 -86 154 -108 11 -17 20 -52 24 -90 6 -73 7 -72 -97 -20 -68 34
-91 33 -119 -4 -18 -24 -19 -32 -8 -68 7 -23 31 -68 54 -101 75 -105 87 -131
87 -182 0 -115 -48 -217 -155 -327 -111 -114 -205 -245 -205 -286 0 -13 -14
-30 -37 -45 -25 -16 -49 -45 -71 -88 -30 -59 -64 -91 -96 -91 -16 0 -63 -81
-86 -150 -56 -167 16 -327 153 -338 63 -5 112 23 140 81 16 31 17 42 7 72 -11
34 -61 85 -83 85 -7 -1 0 -7 15 -16 15 -8 35 -28 43 -44 24 -46 19 -78 -19
-116 -28 -28 -41 -34 -79 -34 -117 0 -183 127 -139 268 20 62 90 191 105 192
4 0 7 -15 7 -33 0 -68 95 -156 168 -157 53 0 112 51 112 98 0 30 -43 72 -72
71 -22 -1 -22 -1 2 -8 14 -4 32 -19 40 -34 13 -24 13 -30 0 -54 -32 -58 -100
-55 -161 6 -43 43 -56 89 -40 147 10 38 60 124 71 124 3 0 12 -15 18 -34 25
-69 112 -118 178 -102 63 16 95 92 59 143 -16 23 -63 39 -76 26 -4 -4 4 -9 18
-10 82 -4 62 -123 -21 -123 -95 0 -146 123 -92 224 22 41 25 43 31 23 6 -20 8
-19 15 10 10 43 24 63 117 160 92 97 137 166 158 248 31 121 18 183 -58 283
-75 97 -95 155 -63 181 10 9 17 7 27 -5 8 -10 50 -34 94 -54 91 -42 109 -59
134 -125 13 -34 20 -43 24 -31 9 23 -9 99 -35 149 -13 24 -25 71 -29 110 -5
59 -11 73 -40 103 -19 20 -61 52 -94 71 -105 63 -136 102 -137 175 0 26 -4 36
-10 30 -11 -11 -7 -94 6 -127 5 -14 1 -12 -17 9 -13 15 -30 47 -37 70 -29 94
-28 94 -29 46 -1 -71 17 -119 66 -171 38 -41 42 -49 26 -49 -11 0 -26 -7 -33
-15 -7 -8 -16 -15 -20 -15 -4 0 -22 59 -40 132 -66 269 -47 450 60 571 38 44
34 47 -11 10z"/>
<path d="M1623 2313 c-25 -59 -20 -154 12 -250 15 -46 33 -90 40 -99 20 -28
24 4 8 61 -8 28 -16 70 -17 95 -2 25 -9 67 -16 93 -7 27 -10 67 -6 92 7 55 0
57 -21 8z"/>
<path d="M877 2290 c-4 -14 -10 -63 -14 -110 -6 -93 10 -177 48 -251 41 -82
145 -173 242 -214 68 -28 34 11 -64 75 -33 21 -139 128 -139 140 0 14 4 13 36
-16 81 -72 206 -134 271 -134 47 0 35 11 -45 40 -76 28 -163 83 -214 136 -64
67 -98 168 -110 324 -3 33 -4 33 -11 10z"/>
<path d="M1574 2145 c-24 -58 -18 -133 16 -192 30 -53 49 -72 51 -54 1 6 2 17
3 24 1 6 7 11 14 10 19 -4 15 7 -25 65 -34 48 -38 61 -38 118 0 35 -1 64 -3
64 -2 0 -10 -16 -18 -35z"/>
<path d="M825 2075 c10 -94 33 -163 86 -262 90 -166 188 -233 353 -241 61 -3
87 -1 82 6 -3 6 -28 14 -54 18 -99 14 -156 33 -219 74 -36 23 -27 29 22 14 29
-8 54 -10 68 -5 16 7 18 10 7 14 -124 40 -172 73 -235 157 -47 66 -82 147 -94
223 -12 70 -24 72 -16 2z"/>
<path d="M816 1948 c-25 -57 65 -283 150 -377 51 -57 137 -105 225 -126 67
-15 186 -18 229 -6 22 7 20 9 -20 14 -25 4 -65 9 -90 11 -72 8 -122 18 -149
32 -22 12 -18 13 43 13 76 0 101 6 136 33 l25 20 -40 -9 c-22 -4 -69 -8 -105
-8 -56 1 -76 6 -140 40 -139 73 -234 197 -250 323 -4 39 -9 52 -14 40z"/>
<path d="M821 1585 c37 -103 127 -169 289 -211 97 -25 322 -23 296 3 -3 4 3
16 14 28 l21 22 -53 -9 c-29 -6 -109 -8 -178 -6 -100 4 -139 10 -198 31 -82
28 -137 66 -161 109 -9 16 -22 37 -29 46 -10 14 -10 12 -1 -13z"/>
<path d="M1487 1384 c-16 -8 -38 -16 -50 -18 -12 -1 -43 -12 -68 -24 -67 -31
-155 -52 -229 -53 -90 -2 -33 -16 70 -18 94 -1 167 17 270 69 44 22 82 40 86
40 15 0 -25 -36 -80 -72 -33 -21 -52 -38 -43 -38 32 0 111 33 164 67 29 20 56
33 60 30 3 -4 6 -40 6 -80 0 -61 -5 -85 -30 -139 -66 -140 -162 -205 -264
-178 -42 11 -59 33 -59 75 0 55 43 87 106 79 24 -4 26 -3 9 5 -98 46 -189 -75
-119 -158 44 -53 160 -66 222 -25 34 23 38 11 5 -17 -16 -13 -28 -28 -28 -34
0 -19 -126 -75 -169 -75 -52 0 -102 30 -120 72 -11 24 -15 28 -15 13 -1 -33
34 -80 74 -100 46 -21 143 -17 193 9 18 9 32 13 32 8 0 -14 -37 -44 -166 -135
-132 -94 -200 -161 -234 -234 -25 -53 -37 -145 -23 -180 6 -17 8 -8 9 35 0 37
8 74 22 107 23 49 90 127 145 167 21 15 16 4 -24 -48 -28 -38 -61 -89 -71
-114 -25 -56 -34 -152 -19 -206 12 -45 65 -124 82 -124 6 0 -2 15 -19 34 -57
66 -65 171 -18 271 23 49 104 160 112 153 2 -2 -5 -22 -16 -44 -31 -61 -43
-147 -31 -205 12 -56 42 -119 65 -139 10 -7 4 12 -14 45 -55 105 -36 230 56
355 24 33 44 62 44 65 0 13 -22 2 -53 -25 -41 -36 -60 -38 -55 -8 2 14 29 41
76 74 105 74 142 112 142 146 0 16 14 47 31 71 23 31 29 49 25 69 -4 22 3 37
35 74 61 71 91 144 96 240 5 75 4 82 -20 109 -24 28 -25 29 -66 15 -32 -10
-44 -11 -53 -2 -16 16 -47 14 -81 -4z"/>
</g>
</svg>
