<?xml version="1.0" standalone="no"?>
<!DOCTYPE svg PUBLIC "-//W3C//DTD SVG 20010904//EN"
 "http://www.w3.org/TR/2001/REC-SVG-20010904/DTD/svg10.dtd">
<svg version="1.0" xmlns="http://www.w3.org/2000/svg"
 width="1024.000000pt" height="1024.000000pt" viewBox="0 0 1024.000000 1024.000000"
 preserveAspectRatio="xMidYMid meet">
<metadata>
Created by potrace 1.16, written by Peter Selinger 2001-2019
</metadata>
<g transform="translate(0.000000,1024.000000) scale(0.100000,-0.100000)"
fill="#000000" stroke="none">
<path d="M0 5120 l0 -5120 5120 0 5120 0 0 5120 0 5120 -5120 0 -5120 0 0
-5120z m5447 3617 c33 -60 82 -102 143 -122 25 -8 117 -26 206 -39 636 -98
1120 -283 1653 -633 245 -160 444 -325 656 -544 137 -141 318 -361 318 -386 0
-7 3 -11 5 -8 8 8 69 -88 69 -107 0 -11 -8 -18 -21 -18 -13 0 -16 -3 -10 -8 7
-4 8 -15 3 -27 -4 -11 -8 -15 -8 -9 -1 5 -8 19 -16 30 -14 17 -14 17 -3 -11 7
-16 23 -40 36 -54 12 -13 19 -27 16 -30 -4 -3 -9 0 -11 7 -4 9 -9 10 -17 3 -9
-8 -13 -6 -13 4 0 8 4 15 9 15 4 0 0 8 -9 18 -10 10 -25 18 -33 18 -8 -1 -14
5 -13 12 4 15 -9 16 -23 2 -13 -13 -128 145 -118 162 4 6 3 8 -3 5 -6 -4 -42
32 -80 81 -105 132 -282 311 -438 442 -148 125 -390 292 -415 288 -8 -2 -16
-13 -18 -24 -2 -16 15 -33 70 -74 235 -171 356 -269 475 -384 134 -129 284
-300 362 -411 109 -154 183 -269 216 -331 20 -38 41 -76 47 -84 6 -8 -1 -2
-16 13 -17 19 -26 23 -26 13 0 -8 5 -18 10 -21 6 -3 10 -11 10 -17 0 -7 -4 -7
-13 1 -8 6 -17 7 -21 3 -4 -4 -15 2 -23 13 -13 16 -15 17 -10 3 13 -36 -10
-14 -85 82 -76 97 -98 111 -112 74 -3 -7 21 -51 54 -96 33 -46 58 -89 55 -96
-3 -7 0 -10 5 -7 6 3 10 -2 10 -13 0 -10 -10 -24 -22 -29 -26 -13 -73 -24 -65
-16 3 2 -1 12 -10 21 -8 10 -43 61 -79 115 -74 113 -241 317 -259 317 -7 0
-18 -7 -25 -15 -14 -16 -4 -32 92 -148 102 -124 239 -342 230 -366 -6 -14 -7
-14 -10 1 -3 16 -5 17 -19 2 -11 -10 -19 -12 -26 -5 -7 7 -15 7 -24 -1 -17
-14 -22 -9 -65 72 -83 155 -102 177 -127 146 -11 -13 -6 -24 96 -241 2 -5 -3
-1 -13 10 -16 20 -16 20 -11 -3 3 -12 1 -20 -4 -16 -5 3 -9 12 -9 20 0 23
-136 280 -196 371 -126 190 -327 409 -519 566 -131 108 -381 274 -525 350
-122 64 -355 169 -432 193 -29 9 -58 21 -64 25 -6 5 -14 6 -17 2 -4 -3 -7 -1
-7 5 0 6 -16 14 -35 18 -23 4 -35 12 -35 23 0 9 3 12 8 6 4 -5 32 -10 62 -11
59 -1 174 -29 298 -71 180 -61 452 -207 705 -377 70 -47 130 -86 133 -86 7 0
-82 100 -198 223 -77 80 -81 87 -53 81 37 -8 165 -80 259 -147 209 -148 450
-371 714 -660 43 -48 66 -58 75 -33 8 21 -26 70 -138 196 -241 271 -534 520
-818 696 -129 80 -429 224 -572 274 -166 58 -176 62 -172 67 6 6 203 -24 307
-47 107 -24 323 -86 353 -102 14 -7 17 -7 13 1 -11 16 -184 117 -273 158 -287
131 -583 210 -1013 270 -175 24 -670 24 -852 0 -513 -69 -960 -206 -1226 -377
-77 -49 -109 -75 -60 -49 67 36 447 123 583 134 39 3 63 2 55 -1 -8 -3 -58
-22 -110 -41 -398 -145 -651 -288 -971 -545 -157 -126 -386 -350 -513 -502
-83 -100 -91 -113 -76 -131 21 -25 34 -18 87 48 71 87 359 374 462 460 165
139 317 248 406 292 50 25 97 45 104 45 7 0 -29 -46 -81 -102 -52 -57 -112
-125 -133 -152 l-40 -49 90 65 c333 239 716 416 990 458 39 6 82 13 98 15 23
4 25 2 15 -9 -7 -8 -14 -13 -16 -11 -2 2 -20 -3 -39 -11 -19 -9 -38 -13 -41
-10 -3 3 -10 -1 -16 -8 -11 -14 -32 -24 -251 -116 -439 -185 -786 -435 -1096
-790 -116 -132 -276 -377 -356 -545 -15 -32 -34 -61 -42 -63 -8 -3 -12 1 -9 9
3 8 11 13 18 11 7 -2 10 3 7 12 -4 9 9 50 28 91 38 83 43 110 20 119 -18 6
-57 -48 -109 -152 -37 -73 -64 -112 -78 -112 -5 0 -3 9 4 20 14 22 2 41 -13
20 -8 -12 -10 -10 -6 7 7 31 -8 38 -26 12 -9 -13 -17 -16 -22 -10 -3 6 -2 11
3 11 5 0 12 12 15 28 8 36 104 181 216 322 50 63 91 123 91 132 0 25 -17 31
-41 14 -40 -28 -181 -201 -261 -321 -76 -113 -120 -158 -103 -105 4 13 3 20
-2 17 -5 -3 -15 -2 -23 3 -11 7 -11 12 -2 23 9 11 9 14 -3 14 -8 0 -12 -4 -10
-8 3 -4 -2 -10 -10 -13 -21 -7 -9 15 62 118 56 81 62 109 28 114 -16 2 -36
-19 -84 -87 -35 -50 -67 -88 -72 -85 -5 3 -6 -1 -3 -9 3 -8 1 -18 -4 -21 -12
-7 -33 49 -26 68 3 8 1 17 -5 21 -7 4 -8 -1 -4 -12 3 -10 3 -15 -2 -11 -4 4
-14 3 -22 -3 -73 -61 144 275 311 481 167 206 452 468 713 655 62 44 112 85
113 91 0 6 -8 18 -18 27 -18 16 -24 14 -108 -45 -244 -168 -363 -268 -560
-470 -126 -129 -275 -308 -373 -446 -15 -21 -30 -32 -40 -29 -17 4 -41 -15
-41 -33 0 -5 7 -10 15 -10 8 0 15 5 15 10 0 6 5 10 12 10 6 0 4 -8 -6 -19 -10
-11 -24 -17 -31 -14 -23 8 -22 37 2 63 16 18 19 26 10 32 -17 11 -37 10 -37
-2 0 -5 8 -7 18 -3 9 3 14 2 9 -2 -11 -13 -51 -13 -62 -1 -5 6 -9 9 -8 7 2 -2
-5 -10 -15 -17 -16 -12 -15 -13 4 -8 12 3 26 -1 33 -10 12 -14 9 -18 -17 -27
-17 -6 -35 -10 -39 -9 -4 1 -10 -7 -14 -17 -7 -16 -8 -15 -8 5 -1 13 5 22 14
22 8 0 12 6 9 14 -10 25 157 264 309 441 90 106 332 341 448 436 207 170 410
310 579 401 36 20 92 50 125 68 344 186 828 337 1334 416 57 9 121 22 143 30
89 31 146 97 180 208 l21 70 14 -54 c7 -29 25 -75 40 -103z m2542 -724 c59
-44 282 -246 334 -302 41 -43 46 -54 37 -71 -6 -11 -17 -20 -24 -20 -20 0 -49
37 -40 52 6 9 3 9 -10 -1 -9 -8 -16 -10 -15 -5 4 22 -2 34 -18 35 -10 0 -13 3
-6 5 13 6 -35 52 -75 73 -12 7 -20 16 -17 22 4 5 -1 9 -10 9 -10 0 -13 5 -9
12 5 8 2 9 -10 5 -9 -4 -15 -3 -12 2 3 4 -7 14 -22 22 -15 8 -35 22 -44 33
-10 10 -18 16 -18 13 0 -4 -12 3 -27 16 -102 86 -105 91 -81 115 17 17 27 15
67 -15z m-2585 -34 c15 -95 65 -152 161 -184 l64 -22 -59 -16 c-34 -10 -74
-30 -94 -48 -36 -31 -76 -118 -76 -164 0 -45 -16 -26 -28 34 -21 102 -68 152
-172 180 l-62 17 59 16 c32 9 74 27 93 40 40 26 79 98 87 157 7 50 18 45 27
-10z m823 -1313 c83 -78 151 -157 115 -135 -12 8 -22 18 -22 24 0 6 -9 18 -20
28 -22 19 -35 22 -25 8 3 -5 1 -12 -4 -15 -4 -3 -8 4 -7 17 1 13 -4 21 -11 20
-7 -2 -13 2 -13 8 0 8 -4 8 -14 0 -11 -9 -15 -9 -19 1 -4 9 -6 8 -6 -3 -1 -9
9 -19 21 -22 17 -5 19 -9 10 -20 -7 -8 -8 -18 -4 -22 4 -5 2 -5 -5 -1 -7 4
-10 13 -6 21 3 9 -1 15 -11 15 -9 0 -17 8 -17 18 -1 16 -2 16 -6 -1 -4 -14 -8
-16 -19 -6 -17 14 -19 33 -1 24 6 -4 4 0 -6 8 -9 8 -28 12 -42 9 -14 -2 -25
-1 -24 4 4 21 -2 26 -16 14 -12 -10 -15 -9 -16 6 0 11 -3 14 -6 7 -5 -13 -33
-18 -33 -7 0 4 8 13 18 20 16 13 16 14 -2 7 -14 -5 -17 -3 -11 7 5 9 4 11 -3
6 -18 -11 -14 -40 8 -64 12 -12 16 -22 11 -22 -6 0 -14 7 -19 16 -5 9 -15 14
-21 10 -6 -4 -8 -13 -5 -19 4 -7 -5 0 -20 15 -14 15 -26 33 -26 40 0 9 -3 9
-10 -2 -8 -13 -10 -13 -10 1 0 9 -9 20 -19 25 -21 10 -29 17 -318 291 -106
101 -195 183 -198 183 -6 0 -37 -29 -299 -281 -185 -178 -240 -229 -249 -229
-5 0 -6 4 -3 9 3 5 -1 12 -10 15 -12 5 -15 2 -10 -11 4 -13 0 -11 -14 6 -11
12 -18 27 -15 31 3 5 0 12 -6 16 -8 4 -9 3 -5 -4 4 -7 1 -12 -6 -13 -11 0 -11
-2 0 -6 10 -4 9 -9 -5 -20 -17 -13 -16 -14 5 -8 22 6 23 5 12 -14 -6 -12 -8
-27 -4 -33 4 -7 3 -8 -4 -4 -7 4 -12 12 -12 17 0 18 -28 39 -44 33 -9 -3 -16
-2 -16 4 0 6 -9 8 -20 5 -11 -3 -20 0 -20 6 0 6 -4 11 -10 11 -5 0 -10 -4 -10
-9 0 -12 67 -34 80 -26 5 3 10 2 10 -3 0 -5 -9 -12 -20 -15 -11 -3 -20 0 -20
5 0 7 -4 7 -12 1 -28 -21 -44 -21 -44 -1 1 12 -6 23 -14 26 -13 4 -13 3 -2
-10 15 -19 3 -31 -18 -18 -15 10 -42 2 -35 -10 3 -5 1 -11 -4 -14 -81 -50 238
272 644 651 77 72 148 140 159 151 18 21 19 20 399 -341 209 -199 414 -393
454 -431z m-2052 499 c31 -30 32 -71 3 -102 -58 -62 -168 23 -115 89 33 42 78
48 112 13z m-2407 -335 c-31 -246 -11 -619 43 -834 11 -43 18 -80 16 -82 -7
-8 -66 159 -91 261 -65 263 -69 562 -9 805 8 36 18 69 21 74 3 6 12 -19 19
-55 12 -54 12 -81 1 -169z m7307 84 c44 -242 42 -431 -6 -669 -21 -102 -90
-328 -110 -355 -8 -12 -9 -11 -5 5 84 327 105 601 70 890 -13 109 -14 142 -3
203 7 44 16 69 21 64 5 -5 20 -67 33 -138z m-2675 -72 c148 -143 154 -151 138
-168 -17 -17 -22 -14 -110 72 -51 49 -126 119 -166 156 -64 60 -72 70 -62 88
8 15 15 18 28 11 9 -5 87 -77 172 -159z m-1790 134 c0 -16 -15 -36 -47 -62
-27 -21 -96 -85 -156 -142 -59 -57 -113 -102 -120 -99 -30 10 -13 40 70 119
48 46 117 112 153 146 70 66 100 78 100 38z m-756 -118 c15 -15 54 -36 89 -47
34 -11 55 -20 47 -20 -84 -4 -152 -59 -179 -144 l-18 -60 -7 39 c-17 90 -68
144 -151 160 l-38 7 58 22 c71 26 109 63 126 121 l14 45 16 -48 c8 -26 28 -60
43 -75z m1786 -163 c133 -126 331 -313 439 -414 321 -300 787 -768 788 -794 1
-13 -1 -17 -6 -9 -5 9 -12 9 -27 -3 -19 -15 -19 -15 1 -9 16 5 17 4 6 -4 -11
-8 -21 -6 -38 7 -35 29 -166 145 -296 266 -169 156 -284 255 -296 255 -25 0
-5 -31 80 -125 104 -114 160 -185 212 -267 43 -66 137 -229 137 -235 0 -6
-114 93 -205 177 -33 30 -94 84 -135 120 -41 36 -87 76 -101 90 -14 14 -70 65
-125 115 -217 197 -353 323 -524 486 l-156 147 -49 -46 c-28 -25 -113 -105
-190 -177 -77 -71 -174 -161 -215 -200 -370 -342 -382 -353 -585 -534 -77 -69
-153 -136 -169 -150 l-29 -26 13 25 c32 62 147 250 180 295 21 28 83 101 139
164 55 63 101 118 101 123 0 30 -61 -13 -210 -151 -251 -231 -357 -321 -382
-321 -12 0 -16 -5 -11 -17 6 -16 3 -15 -17 2 l-23 20 7 -22 c6 -18 4 -20 -14
-16 -26 7 -25 15 5 43 14 13 25 28 25 34 0 18 543 552 985 970 220 208 407
386 415 397 8 10 18 17 22 16 3 -1 115 -105 248 -232z m1749 161 c78 -41 83
-151 9 -196 -41 -25 -74 -25 -115 0 -40 24 -56 53 -56 101 0 84 85 134 162 95z
m-5484 -135 c78 -199 250 -411 500 -616 372 -305 492 -496 521 -834 5 -62 4
-82 -5 -77 -6 4 -11 18 -11 30 0 42 -48 209 -80 281 -34 76 -77 148 -124 207
-25 32 -32 36 -45 25 -14 -10 -14 -10 -3 4 10 13 10 18 -1 28 -8 6 -18 7 -22
3 -5 -4 -5 -2 -2 4 8 15 -22 56 -35 48 -6 -4 -8 -3 -5 3 7 11 -15 32 -118 118
-33 27 -75 63 -94 80 -19 16 -39 35 -45 40 -6 6 -55 49 -107 97 -53 48 -100
84 -104 80 -5 -4 -5 -2 -2 4 8 15 -62 96 -75 88 -6 -4 -8 -2 -5 4 4 5 -9 30
-29 54 -41 49 -50 58 -40 41 3 -6 2 -14 -3 -18 -6 -3 -8 4 -6 16 5 22 -17 63
-28 54 -4 -3 -5 -2 -2 1 2 4 -7 28 -20 55 -14 26 -27 74 -30 106 -3 32 -8 78
-10 102 -6 55 -1 50 30 -28z m6995 -118 c-12 -32 -22 -66 -23 -75 -1 -9 -4
-15 -8 -12 -4 2 -11 -5 -14 -16 -4 -12 -42 -65 -85 -120 -43 -54 -77 -100 -74
-103 2 -2 -2 -10 -11 -17 -8 -7 -15 -9 -15 -4 0 4 -11 -3 -25 -16 -13 -12 -22
-27 -18 -33 3 -6 1 -7 -4 -4 -6 4 -17 -1 -24 -10 -12 -14 -12 -16 1 -8 9 5 12
5 7 -1 -5 -5 -12 -9 -15 -9 -16 0 -101 -79 -95 -88 3 -6 2 -7 -4 -4 -14 9 -55
-22 -47 -36 4 -7 4 -9 -1 -5 -19 18 -73 -44 -66 -75 1 -5 -3 -6 -9 -2 -8 5 -7
12 2 23 11 15 11 15 -4 4 -9 -7 -15 -21 -13 -30 4 -25 -5 -35 -20 -22 -11 9
-32 -6 -100 -71 -47 -45 -84 -88 -81 -95 2 -6 -2 -11 -9 -10 -15 1 -125 -139
-125 -160 0 -8 -4 -14 -9 -14 -23 0 -99 -201 -122 -322 -18 -96 -33 -98 -25
-3 22 256 116 462 292 639 44 43 142 131 219 196 167 140 310 287 384 394 55
79 149 256 153 285 1 9 3 -14 5 -51 3 -49 -2 -81 -17 -125z m-4832 -90 c2 -15
-30 -52 -124 -139 -69 -66 -131 -119 -137 -119 -7 0 -13 9 -16 20 -2 14 30 51
125 142 71 67 134 121 139 119 6 -1 11 -12 13 -23z m2871 -151 c101 -96 133
-132 128 -145 -3 -9 -11 -17 -17 -17 -18 0 -280 254 -280 273 0 38 41 11 169
-111z m422 -389 c93 -91 115 -126 87 -136 -21 -6 -217 184 -218 211 0 41 32
23 131 -75z m-1745 -158 c210 -202 278 -266 457 -428 54 -49 94 -93 91 -99 -4
-7 -2 -8 4 -4 15 9 172 -124 167 -141 -2 -7 1 -10 8 -8 18 7 83 -55 68 -65 -9
-5 -8 -9 4 -13 9 -4 13 -3 10 3 -3 6 -2 10 3 10 14 0 52 -49 52 -67 0 -9 3
-13 7 -10 9 10 34 -14 26 -26 -4 -6 0 -8 9 -5 8 4 15 0 15 -7 0 -10 -5 -11
-19 -4 -10 6 -16 14 -13 20 4 5 2 9 -4 9 -5 0 -12 -6 -14 -12 -4 -9 -6 -7 -6
3 -1 9 -15 20 -33 26 -18 5 -32 14 -31 20 1 6 -4 14 -12 17 -10 3 -12 0 -8
-12 6 -15 5 -16 -13 -2 -18 14 -18 14 -5 -3 8 -9 16 -15 19 -13 2 3 22 -13 44
-36 49 -51 45 -58 -7 -11 -22 20 -50 42 -62 50 -13 9 -20 20 -16 26 3 5 2 7
-3 4 -6 -3 -36 16 -68 44 -31 27 -78 65 -103 86 l-45 37 -20 -24 -19 -23 46
-47 c25 -25 42 -50 38 -55 -5 -4 -2 -5 5 -1 9 5 20 0 30 -15 26 -37 43 -71 37
-77 -2 -3 -7 3 -11 12 -3 9 -11 13 -18 9 -6 -4 -23 -6 -38 -4 -14 1 -29 -3
-33 -9 -5 -9 0 -10 16 -6 13 3 18 3 11 0 -6 -3 -10 -10 -6 -15 17 -29 -26 2
-119 84 -58 50 -156 136 -219 189 -62 54 -171 150 -243 213 -71 64 -146 129
-166 145 l-35 29 -45 -42 c-97 -90 -549 -483 -629 -547 -24 -19 -50 -34 -57
-33 -9 0 -12 -5 -9 -13 9 -23 -5 -16 -35 17 -20 22 -34 30 -49 26 -32 -8 -23
8 28 49 26 20 60 51 75 67 27 28 27 30 11 48 -9 11 -20 19 -23 19 -3 0 -62
-45 -130 -100 -67 -55 -126 -100 -129 -100 -4 0 4 11 18 23 14 13 32 31 40 41
14 18 14 19 -8 7 -13 -7 -28 -10 -35 -7 -7 2 -4 5 6 5 9 1 17 5 17 10 0 5 8
12 18 14 9 2 -1 3 -23 2 -22 -1 -32 0 -22 2 9 3 17 12 17 21 0 9 42 53 92 97
51 44 135 121 188 171 52 50 154 145 225 211 72 66 202 189 290 272 88 83 165
150 171 149 6 -2 106 -93 220 -203z m-2460 24 c38 -89 69 -197 61 -206 -9 -8
-37 17 -37 33 0 8 -4 14 -10 14 -5 0 -10 6 -10 13 -1 15 -55 88 -61 82 -3 -2
-5 4 -6 13 -1 9 -6 40 -12 67 -5 28 -10 73 -10 100 l-1 50 27 -45 c15 -24 41
-79 59 -121z m4564 69 c-7 -80 -12 -95 -56 -174 -44 -77 -77 -114 -91 -101 -9
9 56 186 102 278 26 50 47 89 49 88 1 -2 -1 -43 -4 -91z m-5952 -98 c50 -124
146 -296 214 -382 16 -21 27 -38 25 -38 -14 0 -185 64 -204 76 -12 8 -26 14
-30 14 -10 0 -6 -180 7 -289 7 -66 7 -87 -3 -93 -8 -5 -7 -8 6 -8 10 0 17 -8
17 -20 0 -13 -5 -18 -14 -14 -8 3 -23 1 -33 -6 -16 -10 -16 -10 3 -5 29 8 61
-5 42 -16 -10 -7 -10 -9 0 -9 10 0 10 -3 0 -14 -11 -13 -15 -13 -25 2 -8 10
-13 11 -13 3 0 -7 -4 -9 -10 -6 -5 3 -10 0 -10 -7 0 -9 -3 -9 -10 2 -13 20
-13 33 0 25 6 -3 10 -4 10 -1 0 3 -8 10 -18 15 -17 9 -19 6 -20 -22 -1 -23 2
-28 9 -17 7 11 9 7 7 -15 -2 -18 -9 -31 -20 -33 -12 -2 -15 2 -12 20 5 22 4
22 -8 -2 -16 -30 -33 -35 -38 -12 -9 46 -3 467 8 547 20 136 52 294 78 374 6
19 8 16 42 -69z m7320 -17 c48 -212 64 -340 69 -578 3 -174 2 -226 -7 -215 -9
12 -11 10 -7 -12 2 -16 0 -28 -5 -28 -6 0 -8 -7 -4 -15 3 -8 1 -15 -3 -15 -5
0 -14 15 -21 33 -11 31 -12 31 -26 13 -11 -16 -14 -17 -14 -4 0 9 6 18 13 21
6 2 8 8 4 13 -5 5 -14 1 -21 -9 -15 -20 -30 -23 -23 -4 3 8 -1 14 -8 14 -11 0
-11 -5 -4 -19 13 -24 1 -68 -12 -47 -5 8 -9 19 -9 24 0 6 5 3 10 -5 16 -25 11
3 -6 30 -14 23 -14 23 -9 3 4 -14 2 -23 -5 -23 -6 0 -9 -4 -6 -8 3 -5 -1 -9
-8 -9 -10 0 -10 14 1 71 18 93 43 325 43 400 0 52 -2 57 -17 51 -126 -54 -223
-84 -223 -70 0 3 19 31 43 62 24 32 60 85 80 118 37 63 137 277 137 295 0 5 3
10 8 10 4 0 18 -44 30 -97z m-6902 -623 c317 -80 403 -126 468 -250 39 -73 46
-121 9 -58 -21 35 -76 82 -86 72 -3 -3 -8 0 -13 7 -5 8 -3 10 6 4 9 -5 11 -4
6 3 -4 7 -11 12 -16 12 -5 0 -31 14 -57 30 -26 17 -54 28 -62 25 -9 -3 -12 -3
-8 1 10 10 -84 46 -103 39 -8 -4 -11 -3 -7 1 4 4 -61 31 -145 59 -148 50 -215
79 -230 100 -15 19 -8 24 20 14 15 -6 113 -33 218 -59z m6655 42 c-6 -12 -20
-24 -31 -27 -11 -4 -17 -11 -14 -17 4 -6 3 -8 -3 -5 -13 8 -266 -77 -256 -86
4 -5 0 -5 -9 -2 -17 7 -163 -46 -244 -89 -53 -27 -105 -65 -90 -66 5 0 18 7
28 17 22 20 24 11 2 -12 -9 -8 -24 -13 -34 -10 -12 4 -29 -8 -55 -37 -31 -35
-36 -38 -30 -18 49 161 154 226 511 314 99 25 191 49 205 54 30 12 33 9 20
-16z m-4897 -79 c-9 -16 -26 -34 -36 -42 -11 -7 -17 -19 -14 -27 3 -8 2 -13
-3 -11 -7 2 -101 -115 -166 -208 -85 -121 -133 -192 -163 -239 -51 -79 -103
-186 -97 -197 4 -5 2 -8 -4 -7 -15 4 -93 -189 -125 -309 -33 -125 -56 -298
-56 -422 -1 -90 -2 -94 -15 -69 -8 14 -20 69 -27 121 -45 358 179 903 515
1254 68 72 192 181 206 183 2 0 -5 -12 -15 -27z m3050 -112 c325 -312 558
-818 555 -1202 0 -63 -6 -136 -13 -164 l-12 -50 -12 135 c-15 158 -32 271 -41
266 -3 -2 -6 10 -7 27 -1 44 -73 269 -83 262 -5 -3 -7 5 -3 17 3 14 1 19 -6
14 -8 -4 -10 -2 -6 7 9 25 -149 322 -166 312 -5 -3 -12 0 -16 6 -4 8 -3 9 4 5
22 -13 12 6 -44 85 -49 70 -58 78 -72 67 -15 -12 -15 -11 -4 4 15 19 7 42 -10
32 -6 -4 -8 -3 -5 3 7 12 -50 93 -66 93 -5 0 -7 3 -4 7 9 8 -13 34 -23 28 -4
-3 -7 3 -6 13 0 9 -5 16 -12 14 -8 -1 -10 2 -7 8 4 6 -15 37 -42 68 -27 31
-53 64 -58 72 -13 22 80 -53 159 -129z m-5674 -251 c28 -53 78 -215 71 -233
-7 -18 -9 -16 -20 12 -7 17 -17 28 -22 25 -5 -3 -9 2 -9 10 0 9 -4 16 -10 16
-5 0 -10 9 -10 20 0 13 -7 20 -18 20 -22 0 -50 70 -37 90 5 9 4 11 -3 6 -13
-8 -17 35 -5 47 14 14 53 6 63 -13z m3805 -308 c-267 -106 -474 -339 -586
-660 l-30 -87 5 61 c3 34 17 98 31 143 31 96 116 275 148 309 l22 25 -25 -13
c-14 -7 -64 -52 -111 -99 -63 -64 -96 -107 -126 -166 -68 -132 -85 -206 -88
-382 -2 -84 0 -151 4 -149 4 3 7 -4 7 -15 0 -10 -4 -19 -8 -19 -4 0 -8 -10 -8
-22 1 -21 2 -22 14 -5 13 17 14 16 19 -3 3 -11 1 -18 -4 -14 -5 3 -9 -4 -9
-15 0 -12 5 -21 10 -21 6 0 10 -7 10 -16 0 -8 5 -12 11 -8 8 4 9 -1 4 -16 -4
-14 -3 -20 3 -16 12 7 24 -22 15 -37 -3 -7 -3 -9 2 -5 10 9 46 -62 38 -75 -3
-6 -1 -7 5 -3 6 3 16 -2 21 -13 13 -24 14 -42 2 -21 -7 9 -9 2 -7 -23 2 -21
11 -46 20 -56 16 -18 16 -19 0 -17 -9 0 -19 -5 -21 -12 -3 -8 1 -10 13 -5 11
4 15 3 10 -5 -3 -6 3 -13 15 -17 15 -5 18 -10 10 -18 -8 -8 -19 -3 -42 19 -41
39 -137 150 -122 140 9 -5 11 -2 7 7 -3 8 -1 18 5 22 6 3 11 11 11 17 0 5 -8
0 -19 -13 l-19 -23 -7 33 c-4 19 -14 48 -21 65 l-14 31 6 -40 c19 -117 113
-297 192 -366 l35 -31 -86 3 c-79 4 -88 6 -117 34 -58 55 -110 147 -146 260
-61 188 -59 388 6 581 131 387 480 696 870 769 107 21 120 16 45 -13z m555 1
l55 -7 -104 -18 c-132 -24 -262 -68 -371 -126 -101 -54 -174 -102 -166 -109 7
-7 -41 -53 -54 -53 -5 0 -7 -6 -4 -14 3 -9 -3 -17 -16 -21 -12 -4 -19 -9 -17
-11 8 -9 58 20 54 31 -3 6 4 11 14 11 15 0 8 -11 -28 -46 -26 -25 -51 -45 -55
-45 -5 0 -9 -4 -9 -10 -1 -5 -19 -35 -40 -66 -56 -83 -79 -126 -110 -209 -26
-68 -28 -71 -22 -30 3 25 10 47 15 48 11 5 10 49 -1 57 -5 3 -17 -3 -27 -12
-15 -15 -17 -15 -12 -2 3 9 2 22 -3 30 -7 12 -9 12 -9 0 0 -8 -2 -12 -5 -10
-5 5 17 69 50 143 31 73 94 161 155 219 34 31 65 55 70 52 5 -3 12 0 16 6 5 8
3 9 -7 4 -29 -17 7 13 73 59 158 111 348 155 558 129z m-3869 -43 c296 -53
424 -102 538 -205 41 -37 51 -55 30 -55 -5 0 -8 4 -5 9 13 21 -161 91 -334
135 -96 24 -193 47 -215 51 -102 16 -195 58 -195 87 0 11 -2 11 181 -22z
m7349 22 c0 -12 -41 -47 -65 -57 -26 -11 -22 -10 -80 -19 -95 -14 -420 -98
-494 -126 -41 -16 -77 -28 -78 -26 -2 2 16 21 41 43 78 69 230 119 511 168
151 26 165 28 165 17z m-3182 -97 c38 -8 92 -23 121 -35 175 -68 365 -255 471
-460 69 -135 90 -218 96 -370 l4 -125 -15 64 c-33 145 -55 191 -158 324 -63
83 -139 156 -232 225 -81 60 -163 100 -320 157 -72 26 -149 37 -296 42 -160 5
-171 4 -260 -21 -98 -28 -155 -53 -249 -106 l-55 -31 50 47 c146 135 360 246
556 289 85 18 202 18 287 0z m2977 -457 c-143 -187 -427 -410 -850 -666 -121
-73 -151 -91 -245 -145 -125 -71 -426 -213 -670 -317 -264 -111 -710 -255
-710 -229 0 5 15 26 34 47 26 29 52 43 108 61 222 70 642 236 906 358 446 205
776 400 1133 669 119 89 317 263 328 287 1 5 6 6 9 3 3 -3 -16 -34 -43 -68z
m-7105 2 c39 -43 209 -180 335 -272 278 -201 506 -337 875 -522 389 -194 766
-347 1170 -476 177 -56 173 -54 246 -118 32 -29 40 -40 24 -33 -14 6 -83 24
-153 41 -566 132 -1336 488 -1962 906 -180 121 -318 225 -400 304 -99 95 -184
187 -178 194 5 5 27 -7 43 -24z m3663 -258 c169 -95 214 -335 95 -510 -29 -42
-133 -132 -153 -132 -5 0 11 21 36 48 64 65 84 98 109 172 38 112 17 226 -54
303 -15 16 -31 25 -38 21 -7 -5 -8 -3 -3 6 6 10 4 12 -9 7 -10 -4 -15 -3 -11
3 8 13 -54 40 -90 40 -14 0 -25 -4 -25 -10 0 -6 -9 -6 -26 0 -34 13 -53 13
-34 -1 12 -8 10 -10 -10 -8 -41 2 -52 0 -45 -11 3 -5 0 -7 -9 -4 -25 10 -98
-74 -123 -141 l-22 -60 0 51 c-2 99 55 196 140 240 76 39 188 34 272 -14z"/>
<path d="M4970 5433 c-41 -36 -101 -91 -133 -121 -54 -50 -58 -57 -48 -79 9
-19 15 -22 28 -14 31 16 263 242 263 256 0 10 -24 28 -33 24 -1 0 -36 -30 -77
-66z"/>
<path d="M5719 5484 c-15 -18 -25 -7 187 -199 39 -36 76 -65 82 -65 6 0 13 8
17 19 4 14 -11 35 -62 84 -74 71 -197 177 -205 177 -3 0 -12 -7 -19 -16z"/>
</g>
</svg>
